<svg xmlns="http://www.w3.org/2000/svg" viewBox="0 0 900 1200" width="900" height="1200" role="img" aria-label="Cielo de amanecer sobre colinas, sin revelar el destino">
  <defs>
    <linearGradient id="sky" x1="0" y1="0" x2="0" y2="1">
      <stop offset="0%" stop-color="#152219"/>
      <stop offset="45%" stop-color="#3c4f34"/>
      <stop offset="75%" stop-color="#8aa287"/>
      <stop offset="100%" stop-color="#f0b76b"/>
    </linearGradient>
    <radialGradient id="sun" cx="50%" cy="50%" r="50%">
      <stop offset="0%" stop-color="#faf5e9" stop-opacity="0.95"/>
      <stop offset="60%" stop-color="#f0b76b" stop-opacity="0.55"/>
      <stop offset="100%" stop-color="#f0b76b" stop-opacity="0"/>
    </radialGradient>
  </defs>
  <rect width="900" height="1200" fill="url(#sky)"/>
  <circle cx="450" cy="760" r="260" fill="url(#sun)"/>
  <circle cx="450" cy="760" r="95" fill="#faf5e9" opacity="0.9"/>
  <path d="M0 880 C 180 800, 320 940, 500 860 C 650 800, 760 900, 900 840 L900 1200 L0 1200 Z" fill="#1f3324" opacity="0.85"/>
  <path d="M0 980 C 200 920, 380 1040, 560 970 C 700 920, 800 1000, 900 950 L900 1200 L0 1200 Z" fill="#152219"/>
  <g opacity="0.5">
    <circle cx="120" cy="140" r="2" fill="#faf5e9"/>
    <circle cx="220" cy="90" r="1.6" fill="#faf5e9"/>
    <circle cx="700" cy="120" r="2" fill="#faf5e9"/>
    <circle cx="780" cy="200" r="1.4" fill="#faf5e9"/>
    <circle cx="600" cy="70" r="1.2" fill="#faf5e9"/>
    <circle cx="80" cy="260" r="1.4" fill="#faf5e9"/>
  </g>
</svg>
