<svg xmlns="http://www.w3.org/2000/svg" viewBox="0 0 900 1200" width="900" height="1200" role="img" aria-label="Sierras de Minas, Lavalleja, al amanecer">
  <defs>
    <linearGradient id="minasSky" x1="0" y1="0" x2="0" y2="1">
      <stop offset="0%" stop-color="#f0b76b"/>
      <stop offset="40%" stop-color="#e2924a"/>
      <stop offset="75%" stop-color="#8aa287"/>
      <stop offset="100%" stop-color="#1f3324"/>
    </linearGradient>
  </defs>
  <rect width="900" height="1200" fill="url(#minasSky)"/>
  <circle cx="620" cy="260" r="130" fill="#faf5e9" opacity="0.75"/>
  <path d="M0 560 L200 340 L340 500 L520 300 L680 480 L900 320 L900 700 L0 700 Z" fill="#3c5238" opacity="0.9"/>
  <path d="M0 680 L220 470 L400 640 L560 440 L760 620 L900 480 L900 820 L0 820 Z" fill="#243522"/>
  <path d="M0 820 L260 620 L460 800 L640 610 L820 780 L900 700 L900 1200 L0 1200 Z" fill="#152219"/>
  <g opacity="0.35" stroke="#faf5e9" stroke-width="2" fill="none">
    <path d="M60 900 C 260 840, 460 960, 660 890 C 760 855, 830 890, 900 870"/>
    <path d="M40 970 C 260 910, 480 1020, 700 950 C 790 920, 850 950, 900 935"/>
  </g>
</svg>
